<svg fill="currentColor" width="24px" height="24px" viewBox="0 0 24 24" version="1.1" xmlns="http://www.w3.org/2000/svg" xmlns:xlink="http://www.w3.org/1999/xlink">
  <path d="M16.3474657,14.7868055 L21.7277859,20.1671257 L20.6671257,21.2277859 L15.3385713,15.8992314 C14.0552848,17.0500347 12.3593852,17.75 10.5,17.75 C6.49593556,17.75 3.25,14.5040644 3.25,10.5 C3.25,6.49593556 6.49593556,3.25 10.5,3.25 C14.5040644,3.25 17.75,6.49593556 17.75,10.5 C17.75,12.1038735 17.2291916,13.5861056 16.3474657,14.7868055 Z M10.5,16.25 C13.6756373,16.25 16.25,13.6756373 16.25,10.5 C16.25,7.32436269 13.6756373,4.75 10.5,4.75 C7.32436269,4.75 4.75,7.32436269 4.75,10.5 C4.75,13.6756373 7.32436269,16.25 10.5,16.25 Z"></path>
</svg>
