<svg width="64px" height="64px" viewBox="0 0 64 64" fill="none" version="1.1" xmlns="http://www.w3.org/2000/svg" xmlns:xlink="http://www.w3.org/1999/xlink">
  <g id="Group-48" transform="translate(0.000000, -0.929573)">
    <path d="M37.337972,52.9315932 C38.4340471,54.1015396 39.7460346,55.0539375 41.2011903,55.7315574 L43.6519304,53.0982471 L44.2266855,53.2446199 C44.9629813,53.4321323 45.7247199,53.527992 46.5,53.527992 C47.2752801,53.527992 48.0370187,53.4321323 48.7733145,53.2446199 L49.3480696,53.0982471 L51.7988097,55.7315574 C53.2539654,55.0539375 54.5659529,54.1015396 55.662028,52.9315932 L53.9073753,49.7967113 L54.2287552,49.2925232 C55.0481882,48.0069781 55.5331247,46.5365548 55.6299614,44.9923111 L55.667299,44.3968925 L58.9380199,42.8875338 C58.7422969,41.2873306 58.2398431,39.7565716 57.4637142,38.3638962 L53.926547,39.0589381 L53.5471229,38.6028656 C52.5661246,37.4236935 51.3017921,36.5049303 49.872943,35.9399669 L49.3190585,35.7209623 L48.8895984,32.1561281 C48.1085166,32.0059334 47.3095485,31.9295726 46.5,31.9295726 C45.6904515,31.9295726 44.8914834,32.0059334 44.1104016,32.1561281 L43.6809415,35.7209623 L43.127057,35.9399669 C41.6982079,36.5049303 40.4338754,37.4236935 39.4528771,38.6028656 L39.073453,39.0589381 L35.5362858,38.3638962 C34.7601569,39.7565716 34.2577031,41.2873306 34.0619828,42.8875351 L37.332701,44.3968925 L37.3700386,44.9923111 C37.4668753,46.5365548 37.9518118,48.0069781 38.7712448,49.2925232 L39.0926247,49.7967113 L37.337972,52.9315932 Z M46.5,47.9295726 C44.5670034,47.9295726 43,46.3625693 43,44.4295726 C43,42.496576 44.5670034,40.9295726 46.5,40.9295726 C48.4329966,40.9295726 50,42.496576 50,44.4295726 C50,46.3625693 48.4329966,47.9295726 46.5,47.9295726 Z" stroke="currentColor" stroke-width="2"></path>
    <path d="M14.1460165,40.8239424 C15.4497652,41.6026517 16.8509282,42.2078624 18.3175242,42.6217905 L20.8972609,38.8333063 L21.4995804,38.9043357 C22.0125052,38.9648232 22.5311246,38.9953304 23.0537402,38.9953304 C23.3229095,38.9953304 23.5910459,38.9872377 23.8579233,38.971119 L24.4250121,38.9368684 L27.0624683,42.810117 C28.5027754,42.4705238 29.8876389,41.9486492 31.188372,41.2593015 L30.3427104,36.8039793 L30.8475644,36.4305173 C31.61585,35.8621836 32.3206627,35.2114191 32.948633,34.4908045 L33.3254791,34.0583624 L37.9138442,34.9292768 C38.6471557,33.7283819 39.2325275,32.4422354 39.6553005,31.0964222 L35.916261,28.5503545 L36.0142722,27.9251245 C36.1198217,27.2518064 36.1732382,26.5673746 36.1732382,25.8758324 C36.1732382,25.4333447 36.1513685,24.993699 36.1079416,24.5579177 L36.0490187,23.9666373 L39.8629,21.3696067 C39.5108998,20.0530871 39.0053026,18.7869244 38.3581685,17.5937783 L33.883867,18.4430424 L33.5093702,17.9498449 C32.7851801,16.9961154 31.9334572,16.1443926 30.9797277,15.4202025 L30.4865303,15.0457056 L31.3357943,10.5714042 C30.1426482,9.92427006 28.8764856,9.41867283 27.5599642,9.0666752 L24.9629354,12.880554 L24.3716549,12.821631 C23.9358737,12.7782041 23.496228,12.7563344 23.0537402,12.7563344 C22.3621981,12.7563344 21.6777663,12.8097509 21.0044482,12.9153004 L20.3792182,13.0133117 L17.8331492,9.27427027 C16.4873372,9.69704514 15.2011907,10.2824169 14.0002958,11.0157285 L14.8712102,15.6040936 L14.4387682,15.9809396 C13.7181535,16.6089099 13.067389,17.3137227 12.4990554,18.0820083 L12.1255934,18.5868622 L7.67027115,17.7412006 C6.98092343,19.0419337 6.45904887,20.4267972 6.11945906,21.8671066 L9.99270429,24.5045605 L9.95845363,25.0716493 C9.94233494,25.3385267 9.93424219,25.6066631 9.93424219,25.8758324 C9.93424219,26.398448 9.96474946,26.9170675 10.0252369,27.4299922 L10.0962664,28.0323118 L6.30777955,30.6120501 C6.7217102,32.0786444 7.32692095,33.4798075 8.10563028,34.7835562 L12.6704074,33.917119 L13.0472116,34.361009 C13.51203,34.9085832 14.0209895,35.4175427 14.5685637,35.8823611 L15.0124536,36.2591652 L14.1460165,40.8239424 Z M23,31.9295726 C19.6862915,31.9295726 17,29.2432811 17,25.9295726 C17,22.6158641 19.6862915,19.9295726 23,19.9295726 C26.3137085,19.9295726 29,22.6158641 29,25.9295726 C29,29.2432811 26.3137085,31.9295726 23,31.9295726 Z" stroke="currentColor" stroke-width="2"></path>
  </g>
</svg>
