<svg width="64px" height="64px" viewBox="0 0 64 64" fill="none" version="1.1" xmlns="http://www.w3.org/2000/svg" xmlns:xlink="http://www.w3.org/1999/xlink">
  <path d="M20.3059711,33.9273997 C20.3561867,34.0161864 20.3564047,34.0165713 20.4071044,34.106089 C20.5037099,34.2766087 20.9066813,34.9860499 21.0106885,35.1696757 C21.2449652,35.5832932 21.4313932,35.9151925 21.6089915,36.2358321 C23.9620517,40.4840957 25,43.41974 25,47 L25,55 C25,55.5522847 25.4477153,56 26,56 L38,56 C38.5522847,56 39,55.5522847 39,55 L39,47 C39,43.4303882 40.0331114,40.4998584 42.3776343,36.2457769 C42.5517368,35.929872 42.7345254,35.6027045 42.9635744,35.1960738 C43.0682155,35.0103045 43.4634275,34.3106631 43.5545138,34.1490195 C43.6240272,34.0256106 43.6240272,34.0256106 43.6934491,33.9021206 C46.9110032,28.1754982 48.0004319,25.4990931 48.0004327,21.9804074 C48.0115975,13.1873196 40.8570319,6.03940935 32.0080194,5.99998641 C23.1328595,6.04626385 15.9728706,13.2175627 15.9992835,22.0301333 C15.9992835,25.4515421 17.0964973,28.2089888 20.0814699,33.5276989 C20.1937775,33.7277273 20.1939935,33.7281121 20.3059669,33.9273926 Z M20.3059669,33.9273926 C20.3061826,33.9277766 20.3063988,33.9281614 20.3066154,33.9285469 L20.3053178,33.9262445 C20.3055365,33.9266312 20.3057543,33.9270162 20.3059711,33.9273997 Z" id="Path" stroke="currentColor" stroke-width="2"></path>
  <path d="M32,10 C25.372583,10 20,15.372583 20,22" id="Oval" stroke="currentColor" stroke-width="2" stroke-linejoin="round"></path>
  <path d="M30,44 L30,22 C30,20.8954305 30.8954305,20 32,20 C33.1045695,20 34,20.8954305 34,22 L34,44" id="Rectangle" stroke="currentColor" stroke-width="2"></path>
  <path d="M27,57 L37,57 L34.5857864,59.4142136 C34.2107137,59.7892863 33.7020059,60 33.1715729,60 L30.8284271,60 C30.2979941,60 29.7892863,59.7892863 29.4142136,59.4142136 L27,57 Z" id="Rectangle" fill="currentColor"></path>
  <path d="M26,52 L38,52" id="Line-3" stroke="currentColor" stroke-width="2" stroke-linecap="square"></path>
  <path d="M26,48 L38,48" id="Line-3" stroke="currentColor" stroke-width="2" stroke-linecap="square"></path>
  <path d="M26,44 L38,44" id="Line-3-Copy" stroke="currentColor" stroke-width="2" stroke-linecap="square"></path>
</svg>
