<svg width="64px" height="64px" viewBox="0 0 64 64" fill="none" version="1.1" xmlns="http://www.w3.org/2000/svg" xmlns:xlink="http://www.w3.org/1999/xlink">
  <g transform="translate(8, 8)" stroke="currentColor" stroke-width="2">
    <path d="M31,13.0028658 C29.0790335,14.9219973 26.4747449,16 23.7593853,16 L21.0102177,16 C21.0038018,16 20.997386,16 20.9909704,16 C19.8914911,15.9892769 19.0088043,15.0893555 19.0194343,13.9898762 C19.0301979,12.8765858 19.9357439,11.9797525 21.0490864,11.9797525 L24.0097623,11.9797525 L12.9905783,11.9797525 C11.8912123,11.9797525 11,11.0885402 11,9.98917415 C11,8.88980811 11.8912123,7.99859585 12.9905783,7.99859585 L22,7.99859585 L16.0330871,7.99859585 C14.9317107,7.99859585 14.0388687,7.10575384 14.0388687,6.00437739 C14.0388687,4.90300094 14.9317107,4.01015893 16.0330871,4.01015893 L22,4.01015893 L19.0050795,4.01015893 C17.8977047,4.01015893 17,3.11245427 17,2.00507946 C17,0.897704654 17.8977047,0 19.0050795,0 L24,0 C30.3530763,0 36.1045369,2.57582348 40.2669978,6.74008659 L40.2669978,6.74008659" id="Path"></path>
    <path d="M17,34.9971342 C18.9209665,33.0780027 21.5252551,32 24.2406147,32 L26.9897823,32 C26.9961982,32 27.002614,32 27.0090296,32 C28.1085089,32.0107231 28.9911957,32.9106445 28.9805657,34.0101238 C28.9698021,35.1234142 28.0642561,36.0202475 26.9509136,36.0202475 L23.9902377,36.0202475 L35.0094217,36.0202475 C36.1087877,36.0202475 37,36.9114598 37,38.0108258 C37,39.1101919 36.1087877,40.0014041 35.0094217,40.0014041 L26,40.0014041 L31.9669129,40.0014041 C33.0682893,40.0014041 33.9611313,40.8942462 33.9611313,41.9956226 C33.9611313,43.0969991 33.0682893,43.9898411 31.9669129,43.9898411 L26,43.9898411 L28.9949205,43.9898411 C30.1022953,43.9898411 31,44.8875457 31,45.9949205 C31,47.1022953 30.1022953,48 28.9949205,48 L24,48 C17.6469237,48 11.8954631,45.4241765 7.73300224,41.2599134 L7.73300224,41.2599134" id="Path"></path>
    <path d="M13.0028658,17 C14.9219973,18.9209665 16,21.5252551 16,24.2406147 L16,26.9897823 C16,26.9961982 16,27.002614 16,27.0090296 C15.9892769,28.1085089 15.0893555,28.9911957 13.9898762,28.9805657 C12.8765858,28.9698021 11.9797525,28.0642561 11.9797525,26.9509136 L11.9797525,23.9902377 L11.9797525,35.0094217 C11.9797525,36.1087877 11.0885402,37 9.98917415,37 C8.88980811,37 7.99859585,36.1087877 7.99859585,35.0094217 L7.99859585,26 L7.99859585,31.9669129 C7.99859585,33.0682893 7.10575384,33.9611313 6.00437739,33.9611313 C4.90300094,33.9611313 4.01015893,33.0682893 4.01015893,31.9669129 L4.01015893,26 L4.01015893,28.9949205 C4.01015893,30.1022953 3.11245427,31 2.00507946,31 C0.897704654,31 0,30.1022953 0,28.9949205 L0,24 C0,17.6469237 2.57582348,11.8954631 6.74008659,7.73300224 L6.74008659,7.73300224" id="Path"></path>
    <path d="M34.9971342,31 C33.0780027,29.0790335 32,26.4747449 32,23.7593853 L32,21.0102177 C32,21.0038018 32,20.997386 32,20.9909704 C32.0107231,19.8914911 32.9106445,19.0088043 34.0101238,19.0194343 C35.1234142,19.0301979 36.0202475,19.9357439 36.0202475,21.0490864 L36.0202475,24.0097623 L36.0202475,12.9905783 C36.0202475,11.8912123 36.9114598,11 38.0108258,11 C39.1101919,11 40.0014041,11.8912123 40.0014041,12.9905783 L40.0014041,22 L40.0014041,16.0330871 C40.0014041,14.9317107 40.8942462,14.0388687 41.9956226,14.0388687 C43.0969991,14.0388687 43.9898411,14.9317107 43.9898411,16.0330871 L43.9898411,22 L43.9898411,19.0050795 C43.9898411,17.8977047 44.8875457,17 45.9949205,17 C47.1022953,17 48,17.8977047 48,19.0050795 L48,24 C48,30.3530763 45.4241765,36.1045369 41.2599134,40.2669978 L41.2599134,40.2669978" id="Path"></path>
  </g>
</svg>
