<svg width="64px" height="64px" viewBox="0 0 64 64" fill="none" version="1.1" xmlns="http://www.w3.org/2000/svg" xmlns:xlink="http://www.w3.org/1999/xlink">
  <g id="Group-49-Copy-2" transform="translate(9.000000, 9.000000)" stroke="currentColor" stroke-width="2">
    <path d="M30,13.0028658 C28.0790335,14.9219973 25.4747449,16 22.7593853,16 L20.0102177,16 C20.0038018,16 19.997386,16 19.9909704,16 C18.8914911,15.9892769 18.0088043,15.0893555 18.0194343,13.9898762 C18.0301979,12.8765858 18.9357439,11.9797525 20.0490864,11.9797525 L23.0097623,11.9797525 L11.9905783,11.9797525 C10.8912123,11.9797525 10,11.0885402 10,9.98917415 C10,8.88980811 10.8912123,7.99859585 11.9905783,7.99859585 L21,7.99859585 L15.0330871,7.99859585 C13.9317107,7.99859585 13.0388687,7.10575384 13.0388687,6.00437739 C13.0388687,4.90300094 13.9317107,4.01015893 15.0330871,4.01015893 L21,4.01015893 L18.0050795,4.01015893 C16.8977047,4.01015893 16,3.11245427 16,2.00507946 C16,0.897704654 16.8977047,0 18.0050795,0 L23,0 C29.3530763,0 35.1045369,2.57582348 39.2669978,6.74008659 L39.2669978,6.74008659" id="Path"></path>
    <path d="M16,32.9971342 C17.9209665,31.0780027 20.5252551,30 23.2406147,30 L25.9897823,30 C25.9961982,30 26.002614,30 26.0090296,30 C27.1085089,30.0107231 27.9911957,30.9106445 27.9805657,32.0101238 C27.9698021,33.1234142 27.0642561,34.0202475 25.9509136,34.0202475 L22.9902377,34.0202475 L34.0094217,34.0202475 C35.1087877,34.0202475 36,34.9114598 36,36.0108258 C36,37.1101919 35.1087877,38.0014041 34.0094217,38.0014041 L25,38.0014041 L30.9669129,38.0014041 C32.0682893,38.0014041 32.9611313,38.8942462 32.9611313,39.9956226 C32.9611313,41.0969991 32.0682893,41.9898411 30.9669129,41.9898411 L25,41.9898411 L27.9949205,41.9898411 C29.1022953,41.9898411 30,42.8875457 30,43.9949205 C30,45.1022953 29.1022953,46 27.9949205,46 L23,46 C16.6469237,46 10.8954631,43.4241765 6.73300224,39.2599134 L6.73300224,39.2599134" id="Path"></path>
    <path d="M13.0028658,16 C14.9219973,17.9209665 16,20.5252551 16,23.2406147 L16,25.9897823 C16,25.9961982 16,26.002614 16,26.0090296 C15.9892769,27.1085089 15.0893555,27.9911957 13.9898762,27.9805657 C12.8765858,27.9698021 11.9797525,27.0642561 11.9797525,25.9509136 L11.9797525,22.9902377 L11.9797525,34.0094217 C11.9797525,35.1087877 11.0885402,36 9.98917415,36 C8.88980811,36 7.99859585,35.1087877 7.99859585,34.0094217 L7.99859585,25 L7.99859585,30.9669129 C7.99859585,32.0682893 7.10575384,32.9611313 6.00437739,32.9611313 C4.90300094,32.9611313 4.01015893,32.0682893 4.01015893,30.9669129 L4.01015893,25 L4.01015893,27.9949205 C4.01015893,29.1022953 3.11245427,30 2.00507946,30 C0.897704654,30 0,29.1022953 0,27.9949205 L0,23 C0,16.6469237 2.57582348,10.8954631 6.74008659,6.73300224 L6.74008659,6.73300224" id="Path"></path>
    <path d="M32.9971342,30 C31.0780027,28.0790335 30,25.4747449 30,22.7593853 L30,20.0102177 C30,20.0038018 30,19.997386 30,19.9909704 C30.0107231,18.8914911 30.9106445,18.0088043 32.0101238,18.0194343 C33.1234142,18.0301979 34.0202475,18.9357439 34.0202475,20.0490864 L34.0202475,23.0097623 L34.0202475,11.9905783 C34.0202475,10.8912123 34.9114598,10 36.0108258,10 C37.1101919,10 38.0014041,10.8912123 38.0014041,11.9905783 L38.0014041,21 L38.0014041,15.0330871 C38.0014041,13.9317107 38.8942462,13.0388687 39.9956226,13.0388687 C41.0969991,13.0388687 41.9898411,13.9317107 41.9898411,15.0330871 L41.9898411,21 L41.9898411,18.0050795 C41.9898411,16.8977047 42.8875457,16 43.9949205,16 C45.1022953,16 46,16.8977047 46,18.0050795 L46,23 C46,29.3530763 43.4241765,35.1045369 39.2599134,39.2669978 L39.2599134,39.2669978" id="Path"></path>
  </g>
</svg>
