<svg width="71px" height="72px" viewBox="0 0 71 72" version="1.1" xmlns="http://www.w3.org/2000/svg" xmlns:xlink="http://www.w3.org/1999/xlink">
    <g id="Page-1" stroke="none" stroke-width="1" fill="none" fill-rule="evenodd">
        <rect id="Rectangle" x="0" y="0" width="71" height="72"></rect>
        <g id="Group-23" transform="translate(3.000000, 5.000000)" stroke="#D52F2E" stroke-linecap="round" stroke-linejoin="round" stroke-width="3">
            <polygon id="Stroke-4" points="25.4033 36.835 12.2153 42 23.2823 33.161 9.0003 30 23.2823 26.839 12.2153 18 25.4033 23.165 21.0003 9.216 30.8793 20.003 33.0003 6 35.1213 20.003 45.0003 9.216 40.5963 23.165 53.7843 18 42.7173 26.839 57.0003 30 42.7173 33.161 53.7843 42 40.5963 36.835 45.0003 50.784 35.1213 39.997 33.0003 54 30.8793 39.997 21.0003 50.784"></polygon>
            <path d="M18.4755859,4.5 L16,0" id="Stroke-5"></path>
            <path d="M34,32 L31,29 M31,32 L34,29" id="Stroke-5-Copy"></path>
            <path d="M62.8887939,30 L64.8068848,30" id="Stroke-7"></path>
            <path d="M6.97949219,44.3886719 L0.5,47.5" id="Stroke-9"></path>
            <path d="M48.5,4.5 L50.5,1.5" id="Stroke-12"></path>
            <path d="M46.5,56.5 L49.5,61.5" id="Stroke-13"></path>
            <path d="M6.5,11.5 L2.5,9.5" id="Stroke-15"></path>
            <path d="M26.1636963,54.6513672 L25.5,56.5" id="Stroke-16"></path>
            <path d="M39.5,5.5 L40,2.52941895" id="Stroke-17"></path>
            <path d="M9.49365234,23.4564209 L6.5,22.5" id="Stroke-18"></path>
            <path d="M49.5,46.5 L52.5,49.5" id="Stroke-19"></path>
            <path d="M59.2858887,14.5118408 L63.5758057,11.8734131" id="Stroke-20"></path>
            <path d="M10.5,55.059082 L8.5,57.5" id="Stroke-22"></path>
        </g>
    </g>
</svg>
