<svg version="1.1" xmlns="http://www.w3.org/2000/svg" xmlns:xlink="http://www.w3.org/1999/xlink" x="0px" y="0px" width="72px" height="72px" viewBox="0 0 72 72" style="enable-background:new 0 0 72 72;" xml:space="preserve">
<style type="text/css">
	.st0{fill:none;}
	.st1{fill:none;stroke:#D52F2E;stroke-width:3;stroke-miterlimit:10;}
</style>
<defs>
</defs>
<rect class="st0" width="72" height="72"></rect>
<path class="st1" d="M57,46.5c0,11.2-9.1,20.2-20.2,20.2s-20.2-9.1-20.2-20.2c0-6.4,2.1-12.9,6.7-16.6c-2.4,9.9,3.7,20.9,8.6,18.2
	c5.7-3.2-4.2-9.3-0.5-21.7c2-6.6,7.2-6.5,9.5-20.6c9.3,7.4-2.6,26.7,6.8,30c3.3,1.1,4.7-3.2,4.7-6.5C55.5,34.5,57,41.3,57,46.5z"></path>
<path class="st1" d="M29.2,54c0.8,3,3.9,5.2,7.5,5.2c3.6,0,8.3-2.4,8.3-8.1s-3.1-6-6.1-12.9c-2.2-5.2-2.2-10.1,1.7-19.9
	c2.2-5.4,0.1-12.6,0.1-12.6"></path>
<path class="st1" d="M29.8,6.6c-1.8,3.8-3.6,7.1-7.4,8.9c-3.5,1.7-3.7,4.7-1.5,6.1c2,1.3,4.8-0.1,6.9-2.4
	C30.2,16.6,32.9,12.1,29.8,6.6z"></path>
</svg>
