<svg version="1.1" xmlns="http://www.w3.org/2000/svg" xmlns:xlink="http://www.w3.org/1999/xlink" x="0px" y="0px" width="285.5px"
	 height="64px" viewBox="0 0 285.5 64" xml:space="preserve">
	<polygon class="st0" fill="#DD2C2C" points="44,29 29,14 29,36 22,29 14,29 35,8 35,0 0,35 20,35 35,50 35,28 42,35 50,35 29,56 29,64 64,29 	"/>
	<path fill="#000000" d="M133.7,31.6h3.4c2.4,0,3.6-1.6,3.6-3.9c0-2.3-1.2-3.8-3.5-3.8h-3.6V31.6z M126.7,46.4V17.8
		h11.9c5.6,0,9.3,4.1,9.3,9.8c0,5.8-3.8,9.9-9.3,9.9h-4.9v8.8H126.7z M101.4,42.8c0,0,3.7,4.1,10.4,4.1c6.4,0,10.1-4.1,10.1-8.9
		c0-9-12.9-8.4-12.9-12c0-1.6,1.6-2.2,3-2.2c3.4,0,6.3,2.5,6.3,2.5l3-5.7c0,0-3-3.2-9.2-3.2c-5.7,0-10.1,3.5-10.1,8.8
		c0,8.8,12.9,8.7,12.9,12.1c0,1.7-1.6,2.3-3,2.3c-3.6,0-6.8-3-6.8-3L101.4,42.8z M80,46.4h18.5v-6H87V35h8.7v-6H87v-5.2h10.9v-6H80
		V46.4z"/>
	<path fill="#666666" d="M273.3,46.4h2.8V34.3l9.4-16h-3.1l-6,10.2c-0.9,1.5-1.7,3.4-1.7,3.4h-0.1c0,0-0.9-1.9-1.7-3.4
		l-6-10.2h-3.2l9.5,16V46.4z M249.5,46.4h2.8V20.8h10.1v-2.5h-22.9v2.5h10.1V46.4z M220.4,46.4H237v-2.5h-13.8V33.5h10.7V31h-10.7
		V20.8h13.1v-2.5h-15.8V46.4z M199.9,46.4h2.8V33.8h10.3v-2.5h-10.3V20.8h12v-2.5h-14.8V46.4z M183.5,21.2L183.5,21.2
		c-0.1,0-0.7,2.3-1.2,3.6L178.6,35h9.7l-3.7-10.2C184.1,23.5,183.5,21.2,183.5,21.2z M192.3,46.4l-3.2-9h-11.3l-3.2,9h-2.9
		L182,18.3h3l10.3,28.1H192.3z M151.7,43.3c0,0,3.2,3.6,8.9,3.6c5.3,0,8.5-3.4,8.5-7.6c0-9.2-14-7.3-14-14c0-2.5,2.3-4.8,5.9-4.8
		c3.7,0,6.2,2.4,6.2,2.4l1.4-2.3c0,0-2.6-2.7-7.5-2.7c-5.2,0-8.8,3.5-8.8,7.6c0,8.7,14,6.9,14,14c0,3-2.5,4.9-5.6,4.9
		c-4.4,0-7.4-3.1-7.4-3.1L151.7,43.3z"/>
</svg>
