<svg version="1.1" xmlns="http://www.w3.org/2000/svg" xmlns:xlink="http://www.w3.org/1999/xlink" x="0px" y="0px" width="72px" height="72px" viewBox="0 0 72 72" style="enable-background:new 0 0 72 72;" xml:space="preserve">
<style type="text/css">
	.st0{fill:none;}
	.st1{fill:none;stroke:#D52F2E;stroke-width:3;stroke-miterlimit:10;}
</style>
<defs>
</defs>
<rect class="st0" width="72" height="72"></rect>
<path class="st1" d="M54.8,57.5c6-5.2,9.8-12.9,9.8-21.5C64.5,20.3,51.7,7.5,36,7.5S7.5,20.3,7.5,36c0,7.8,3.1,14.8,8.2,20"></path>
<path class="st1" d="M22.5,54c-5.4-4.1-9-10.6-9-18h17.2c0,1.9,1,3.6,2.6,4.5l-6,10.4"></path>
<path class="st1" d="M47.2,16.5l-8.6,14.9C37.9,31,37,30.8,36,30.8s-1.9,0.3-2.6,0.7l-8.6-14.9c3.3-1.9,7.2-3,11.2-3
	S43.9,14.6,47.2,16.5z"></path>
<path class="st1" d="M46.9,54.8l-8.3-14.3c1.6-0.9,2.6-2.6,2.6-4.5h17.2c0,7.8-4,14.7-10.1,18.8"></path>
<path class="st1" d="M41.2,36c0,1.9-1.1,3.6-2.6,4.5C37.9,41,37,41.2,36,41.2s-1.9-0.3-2.6-0.7c-1.6-0.9-2.6-2.6-2.6-4.5
	c0-1.9,1.1-3.6,2.6-4.5c0.8-0.5,1.7-0.7,2.6-0.7s1.9,0.3,2.6,0.7C40.2,32.4,41.2,34.1,41.2,36z"></path>
<line class="st1" x1="47.2" y1="16.5" x2="47.2" y2="16.5"></line>
<line class="st1" x1="24.8" y1="16.5" x2="24.8" y2="16.5"></line>
<path class="st1" d="M66,66c0-4-3.2-7.2-7.2-7.2c-0.9,0-1.8,0.2-2.6,0.5c-1.6-2.7-4.6-4.6-7.9-4.6c-1.3,0-2.5,0.3-3.6,0.7
	c-0.4,0.2-1.6,0.7-2.2,1c-2.2-3.7-6.3-6.2-11-6.2c-2.5,0-4.7,0.7-6.7,1.9c-1.9,1.1-3.4,2.8-4.5,4.7C19,56.3,17.5,56,16,56
	c-5.5,0-10,4.5-10,10"></path>
</svg>
