<!-- Generator: Adobe Illustrator 23.0.4, SVG Export Plug-In  -->
<svg version="1.1" xmlns="http://www.w3.org/2000/svg" xmlns:xlink="http://www.w3.org/1999/xlink" x="0px" y="0px" width="100.3px"
	 height="80px" viewBox="0 0 100.3 80" style="enable-background:new 0 0 100.3 80;" xml:space="preserve">
<style type="text/css">
	.st0{fill-rule:evenodd;clip-rule:evenodd;}
	.st1{opacity:0;fill-rule:evenodd;clip-rule:evenodd;}
</style>
<defs>
</defs>
<g>
	<polygon class="st0" points="73.4,33.2 73.4,39.4 77.9,39.4 77.9,46.7 86.9,46.7 86.9,39.4 90.9,39.4 90.9,33.2 	"/>
	<path class="st0" d="M52.2,39.9c0-14.3,16.7-16.2,30.4-11.4v-12C52.2-0.6,9.4,11.2,9.4,39.6c0,31.7,42.8,39.6,73.2,24.2V51.3
		C71.4,55.3,52.2,54.1,52.2,39.9z M33.6,44.4c-1.1,0-1.7,0-2.8-0.6v-6.5c0.3,0.1,0.6,0.3,2.8,0.3c2.3,0,5.1-1.7,5.1-5.1
		c0-3.4-2.7-5.1-5.1-5.1c-2.3,0-5.1,2.3-5.1,5.1l-0.1,26c-2.9-0.1-6-1.9-6.6-5l0-21.8c0-5.7,5.2-11,11.5-11c6.3,0,12.1,5.1,12.1,12
		C45.4,39.6,39.2,44.4,33.6,44.4z"/>
</g>
<rect class="st1" width="100.3" height="80"/>
</svg>
