<!-- Generator: Adobe Illustrator 23.0.4, SVG Export Plug-In  -->
<svg version="1.1" xmlns="http://www.w3.org/2000/svg" xmlns:xlink="http://www.w3.org/1999/xlink" x="0px" y="0px" width="80px"
	 height="80px" viewBox="0 0 80 80" style="enable-background:new 0 0 80 80;" xml:space="preserve">
<style type="text/css">
	.st0{opacity:0;fill-rule:evenodd;clip-rule:evenodd;}
</style>
<defs>
</defs>
<path d="M71.9,43.5c2,0,3.6-1.6,3.6-3.6c0-2-1.6-3.6-3.6-3.6c-2,0-3.6,1.6-3.6,3.6C68.3,41.9,69.9,43.5,71.9,43.5z M67.3,39.9
	c0-2.6,2.1-4.6,4.6-4.6c2.6,0,4.6,2.1,4.6,4.6c0,2.6-2.1,4.6-4.6,4.6C69.3,44.5,67.3,42.4,67.3,39.9 M52.6,50.4
	c1.6-2,2.8-4.3,3.4-6.9h-5.6l0,17.1c-2.2,1.1-4.6,1.9-7.2,2.2V17.1v0C54.5,18.6,63.1,28.3,63.1,40c0,5.7-2.1,10.9-5.5,14.9
	L52.6,50.4z M50.3,36.5H56c-0.8-3.7-2.9-6.9-5.7-9.2L50.3,36.5 M72.1,38.6h-1.2v0.8h1.2c0.2,0,0.3-0.2,0.3-0.4
	C72.5,38.8,72.1,38.6,72.1,38.6z M70.9,40.6v1.9h-1.2v-4.9l3,0c0,0,1,0.3,1.1,1.1c0,0.8-0.1,0.9-0.2,1c-0.1,0.2-0.4,0.5-0.6,0.7
	l1.1,2.1h-1.3l-1-1.9H70.9 M17.7,45.8c2.3,8.9,9.9,15.7,19.2,17V41.6L26.1,31.2c1-1.6,2.4-3.1,3.9-4.3l0,3.8h7V17.1
	c-9.2,1.2-16.7,7.8-19.1,16.5l12,10.8V53c-2.9-2.2-5-5.4-5.9-9L17.7,45.8 M40,3.5C19.8,3.5,3.4,19.8,3.4,40
	c0,20.2,16.4,36.6,36.6,36.6c11.3,0,21.3-5.1,28-13.1l-7-6.1c-5,5.9-12.4,9.7-20.8,9.7C25.2,67.1,13,55,13,40c0,0,0-0.1,0-0.1
	c0-15,12.2-27.1,27.2-27.1c8.4,0,15.9,3.8,20.9,9.8l7-6C61.4,8.6,51.3,3.5,40,3.5z"/>
<rect class="st0" width="80" height="80"/>
</svg>
