<!-- Generator: Adobe Illustrator 23.0.4, SVG Export Plug-In  -->
<svg version="1.1" xmlns="http://www.w3.org/2000/svg" xmlns:xlink="http://www.w3.org/1999/xlink" x="0px" y="0px" width="80.5px"
	 height="80px" viewBox="0 0 80.5 80" style="enable-background:new 0 0 80.5 80;" xml:space="preserve">
<style type="text/css">
	.st0{opacity:0;fill-rule:evenodd;clip-rule:evenodd;}
</style>
<defs>
</defs>
<g>
	<path d="M12.5,53l0.8,1.6c0.5,0.9,0.2,1.8-0.6,2.2l0,0c-0.9,0.5-1.7,0-2.2-0.8l-0.3-0.6l-1.2,0.6L8.7,55L12.5,53z M11.4,55.6
		c0.2,0.4,0.6,0.5,0.9,0.4l0,0c0.4-0.2,0.4-0.6,0.2-1l-0.3-0.7L11,54.9L11.4,55.6z"/>
	<polygon points="14.5,56.6 16.4,59.3 15.7,59.8 14.4,57.9 13.7,58.4 14.8,60.1 14.1,60.6 13,58.9 12.2,59.4 13.6,61.4 12.9,61.9
		11,59.2 	"/>
	<path d="M19.2,62.2l0.6,0.6l-1.6,4.5l-0.7-0.7l0.4-1l-1.3-1.3l-1,0.4l-0.7-0.7L19.2,62.2z M18.2,64.8l0.5-1.4L17.4,64L18.2,64.8z"
		/>
	<path d="M21.7,64.5l1.5,1c0.9,0.6,1,1.5,0.5,2.2l0,0c-0.6,0.8-1.5,0.8-2.3,0.3l-0.6-0.4L20,68.6l-0.8-0.5L21.7,64.5z M21.9,67.3
		c0.4,0.3,0.8,0.2,1-0.1l0,0c0.2-0.4,0.1-0.7-0.3-1L22,65.7l-0.8,1.1L21.9,67.3z"/>
	<path d="M25.2,66.8l1.6,0.8c0.9,0.5,1.2,1.3,0.8,2.1l0,0c-0.5,0.9-1.4,1-2.3,0.6l-0.7-0.3L24,71.1l-0.9-0.4L25.2,66.8z M25.7,69.5
		c0.4,0.2,0.8,0.1,1-0.2l0,0c0.2-0.4,0-0.7-0.4-0.9L25.6,68L25,69.2L25.7,69.5z"/>
	<path d="M28.9,68.6l1.9,0.7c0.5,0.2,0.9,0.5,1.1,0.8c0.2,0.3,0.2,0.7,0,1.1l0,0c-0.2,0.7-0.7,1-1.3,1L31,74l-1.1-0.4L29.5,72
		l-0.7-0.2L28.3,73l-0.9-0.3L28.9,68.6z M30,71.2c0.4,0.2,0.8,0,0.9-0.3l0,0c0.1-0.4-0.1-0.7-0.5-0.8l-0.9-0.3l-0.4,1.2L30,71.2z"/>
	<path d="M32.4,72.1L32.4,72.1c0.2-1.2,1.4-2.1,2.7-1.8c1.3,0.2,2.1,1.4,1.9,2.6l0,0c-0.2,1.2-1.4,2.1-2.7,1.8
		C33,74.5,32.2,73.3,32.4,72.1 M36,72.8L36,72.8c0.1-0.7-0.3-1.5-1.1-1.6c-0.8-0.1-1.4,0.4-1.5,1.1l0,0c-0.1,0.7,0.3,1.4,1.1,1.6
		C35.3,74,35.9,73.5,36,72.8"/>
	<polygon points="37.6,70.8 38.6,70.8 39.7,73.9 40.9,70.9 42,70.9 40.1,75.2 39.2,75.2 	"/>
	<polygon points="42.6,70.8 45.8,70.4 45.9,71.3 43.6,71.5 43.7,72.4 45.8,72.2 45.9,73 43.8,73.3 43.9,74.2 46.3,73.9 46.4,74.8
		43.1,75.1 	"/>
	<path d="M46.7,70.3l1.6-0.4c1.3-0.4,2.5,0.3,2.8,1.5l0,0c0.3,1.2-0.3,2.4-1.7,2.7l-1.6,0.4L46.7,70.3z M47.9,70.9l0.7,2.5l0.7-0.2
		c0.8-0.2,1.1-0.9,0.9-1.6l0,0c-0.2-0.7-0.9-1.1-1.6-0.9L47.9,70.9z"/>
	<path d="M53,68.3l1.6-0.8c0.9-0.5,1.8-0.2,2.2,0.6l0,0c0.5,0.9,0,1.7-0.9,2.2l-0.7,0.3l0.6,1.2l-0.9,0.4L53,68.3z M55.5,69.5
		c0.4-0.2,0.6-0.6,0.4-0.9l0,0c-0.2-0.4-0.6-0.5-1-0.2l-0.7,0.3l0.6,1.2L55.5,69.5z"/>
	<path d="M56.6,66.4l1.6-1.1c0.5-0.3,0.9-0.4,1.3-0.4c0.3,0.1,0.6,0.3,0.9,0.6l0,0c0.4,0.6,0.3,1.2,0,1.6l1.8,0.7l-0.9,0.6l-1.6-0.6
		l-0.6,0.4l0.8,1.1l-0.8,0.5L56.6,66.4z M59.4,67c0.4-0.3,0.5-0.6,0.3-0.9l0,0c-0.2-0.3-0.6-0.3-1-0.1l-0.8,0.5l0.7,1L59.4,67z"/>
	<path d="M61.6,65.5L61.6,65.5c-0.9-0.9-0.9-2.3,0.1-3.2c1-0.9,2.4-0.9,3.2,0l0,0c0.9,0.9,0.8,2.3-0.1,3.2
		C63.8,66.5,62.4,66.4,61.6,65.5 M64.2,63L64.2,63c-0.5-0.6-1.4-0.6-1.9-0.1c-0.6,0.5-0.5,1.3,0,1.9l0,0c0.5,0.5,1.3,0.6,1.9,0.1
		C64.8,64.4,64.7,63.6,64.2,63"/>
	<path d="M63.9,60.1l1-1.4c0.8-1.1,2.1-1.3,3.1-0.5l0,0c1,0.7,1.2,2.1,0.3,3.2l-1,1.4L63.9,60.1z M65.2,59.9l2.1,1.6l0.4-0.6
		c0.5-0.6,0.4-1.4-0.2-1.8l0,0c-0.6-0.5-1.4-0.4-1.8,0.3L65.2,59.9z"/>
	<path d="M68.9,57.5l-2.2-1.2l0.5-0.8l2.2,1.2c0.6,0.3,1.1,0.2,1.4-0.3c0.3-0.5,0.1-1-0.5-1.3l-2.2-1.2l0.5-0.8l2.2,1.2
		c1.2,0.6,1.4,1.6,0.8,2.6C71,57.8,70.1,58.1,68.9,57.5"/>
	<path d="M70.9,53L70.9,53c-1.2-0.4-1.8-1.6-1.4-2.9c0.3-0.8,0.7-1.1,1.2-1.4l0.5,0.8c-0.4,0.2-0.7,0.5-0.8,0.9
		c-0.2,0.7,0.1,1.4,0.9,1.6l0,0c0.7,0.3,1.5,0,1.7-0.7c0.2-0.5,0.1-0.8-0.1-1.3l0.8-0.4c0.3,0.6,0.4,1.2,0.1,1.9
		C73.4,52.9,72.1,53.5,70.9,53"/>
	<polygon points="71.5,46.9 71.2,48.2 70.3,48.1 71,44.5 71.9,44.7 71.6,46 75.1,46.7 74.9,47.6 	"/>
	<path d="M33.2,4.8l1.7-0.3l3.8,5.8l-1.8,0.3l-0.6-1L33.8,10l-0.2,1.2l-1.8,0.3L33.2,4.8z M35.4,8.3l-1-1.6L34,8.5L35.4,8.3z"/>
	<path d="M39.3,4l3.2,0.1c0.8,0,1.3,0.3,1.7,0.6c0.2,0.3,0.4,0.6,0.4,1v0c0,0.7-0.5,1.1-1,1.4c0.8,0.3,1.2,0.7,1.2,1.6v0
		c0,1.1-1,1.7-2.5,1.6l-3.2-0.1L39.3,4z M42.2,7.9l-1.3-0.1l0,1.2L42.2,9C42.7,9,43,8.8,43,8.5v0C43,8.1,42.8,7.9,42.2,7.9
		 M42.9,6.1c0-0.4-0.3-0.6-0.8-0.6l-1.1,0l0,1.1l1.1,0C42.5,6.6,42.8,6.5,42.9,6.1L42.9,6.1z"/>
	<path d="M45.1,9.6l1.2-0.9c0.5,0.6,1.1,1,1.8,1.2c0.5,0.1,0.7,0,0.8-0.2l0,0C49,9.4,48.8,9.3,48,8.9c-1.2-0.6-2.1-1.2-1.8-2.5l0,0
		C46.4,5.2,47.5,4.6,49,5c1,0.3,1.8,0.7,2.3,1.4l-1.1,1c-0.5-0.5-1-0.9-1.6-1c-0.4-0.1-0.7,0-0.7,0.2l0,0c-0.1,0.3,0.1,0.5,0.9,0.9
		c1.3,0.7,2.1,1.3,1.8,2.5l0,0c-0.3,1.3-1.5,1.8-3,1.4C46.6,11.1,45.6,10.5,45.1,9.6"/>
	<path d="M40.5,0C29.2,0,18.9,4.8,11.6,12.4H7.8c0,0,0.1,1.4,0.9,3.4C3.6,22.5,0.5,30.9,0.5,40c0,22.1,17.9,40,40,40
		c22.1,0,40-17.9,40-40S62.6,0,40.5,0 M40.5,79c-21.5,0-39-17.5-39-39c0-8.8,2.9-16.9,7.9-23.5h18.1c-0.1-0.3-0.1-0.6-0.2-0.9
		c-0.2-1.5-0.2-2.7-0.1-3.3l-14.2,0c7-7,16.7-11.3,27.4-11.3c21.5,0,39,17.5,39,39C79.5,61.5,62,79,40.5,79"/>
	<path d="M49.7,30.6c0.6,0.3,1.1,0.5,1.7,0.7c0.7-1.1,1.6-2,2.7-2.8c-2.5-0.2-4.7,0-6.3,0.2C48.3,29.6,48.9,30.2,49.7,30.6"/>
	<path d="M21.7,25.8c0.2,1,0.6,2.2,1.1,3.3l9.7,0c-0.5-1.1-0.9-2.3-1.2-3.3H21.7z"/>
	<path d="M34.8,33.2c-0.7-1.1-1.4-2.2-1.9-3.3l-9.6,0c0.6,1.1,1.4,2.2,2.2,3.3H34.8z"/>
	<path d="M42.7,34.1h-6.3c1,1.2,2,2.4,3.2,3.3l7.2,0C45.1,36.6,43.8,35.4,42.7,34.1"/>
	<path d="M32.1,25.8c0.3,1.1,0.7,2.2,1.3,3.3l6.7,0c-0.4-1.1-0.6-2.3-0.8-3.3H32.1z"/>
	<path d="M46.9,38.3l-6.1,0c0.8,0.5,1.6,0.9,2.5,1.2C44.4,39.1,45.6,38.7,46.9,38.3"/>
	<path d="M29.8,37.4l8.6,0c-1.1-1-2.1-2.1-3-3.3h-9.2C27.2,35.3,28.5,36.4,29.8,37.4"/>
	<path d="M31.4,21.6c-0.1,0.9,0.1,2,0.4,3.3h7.3C39,23.6,39,22.4,39,21.6L31.4,21.6z"/>
	<path d="M37,17.4h-8.3c0.5,1.3,1.2,2.5,2.5,3.3l7.6,0C37.8,19.9,37.3,18.7,37,17.4"/>
	<path d="M33.8,29.9c0.6,1.1,1.2,2.2,2,3.3h6.3c-0.7-1.1-1.3-2.2-1.7-3.3L33.8,29.9z"/>
	<polygon points="48.8,73.6 48.8,73.6 48.8,73.6 	"/>
	<path d="M71.9,33.5c-0.7-0.2-1.4-0.3-2.5-0.4c-0.8-1.5-2.1-1.2-4.5-0.7c-0.3,0.1-0.7,0.1-1,0.2c-2.9,0.6-9.7,1-14.4-1.3
		c-3.5-1.7-4.3-7.1-2.1-14.8c0.2-0.7,0.2-1.4-0.1-2c4,1,7.6,3,10.7,5.7c-3.8-0.4-7.5-0.1-10.7,0.4c-0.2,1.3-0.3,2.5-0.3,3.6
		c2.9-0.6,8.9-1.3,15,1.1c-0.4-1.5,0.2-3.1,0.6-4.1c-0.9-0.3-1.8-0.5-2.8-0.7c-3.6-3.6-8.1-6.1-13-7.2l-0.4-0.1
		c-0.6-0.5-1.3-0.8-2.1-0.8H28.1C28,13,28,14.8,28.4,16.6h8.4c-0.2-1.4-0.1-2.7,0-3.3h7.5c0.7,0,1.4,0.3,1.9,0.9
		c0.4,0.6,0.6,1.3,0.4,2.1c-2.3,8.1-1.4,13.9,2.5,15.8c4.9,2.4,11.9,1.9,15,1.3c0.4-0.1,0.7-0.1,1-0.2c2.5-0.5,3.1-0.6,3.6,0.3
		c-1.2,0.3-2.6,0.4-2.6,0.4s0.7,0.2,1.8,0.2l0.7,0.3l1-0.5c0,0,0,0,0,0c0.5,0,1.3,0,2,0.3c-0.6,0.2-1.1,0.4-1.8,0.8
		c0.4,0,0.9,0,0.9,0l0,0c-0.1,0.1-0.3,0.2-0.4,0.3c-0.4,0.3-2.8,2.2-5.9,4.5c0-0.4-0.1-0.9-0.3-1.3c-0.9-1.7-3.6-3-7-3.3l-0.3,0
		c-1.8-0.2-3.7-0.4-5.5-0.8c-4-0.9-6.3-2.7-7.3-5.8c-0.7-2.1-0.8-5.8-0.1-11.1c-0.9,2.8-1.8,8.1-0.8,11.4c1,3.3,3.6,5.3,7.9,6.3
		c1.9,0.4,3.8,0.6,5.7,0.8l0.3,0c0.3,0,0.6,0.1,0.9,0.1c-0.9,0.1-1.8,0.4-2.8,1.1c1.2-0.2,3.2-0.4,4.7,0.4c-0.8,0-2,0.4-2.9,1.2
		c1-0.2,2.7-0.3,3.8,0.1c-1.4,0.2-2.6,1.3-2.6,1.3s2.4-0.3,4.1,0.2c-1.4,0.9-4.3,1.9-9.3,1.1c1.8,1.3,4.4,1.9,4.4,1.9
		s-1.1,3.1-7.2,7.7c-1.1,0.8-3.1,1.7-5.9,2.7c0.7-2.7,0.3-9.2,0.3-9.2c0,0.1-0.8,7.5-3.8,10.2c0-0.5-0.1-1.5-0.1-1.5s-1,2-3,2.4
		c-0.4-0.4-1-1.5-1-2.5l-0.1-1l-0.7,0.7c0,0,0,0,0,0c-0.6-3.1,0.6-6.4,0.6-6.4c-0.1,0.1-1.3,1.3-2.2,3.2c-0.3,0.6-0.6,1.2-0.8,1.7
		c-1.1-2.1-0.2-4.2,0.1-4.9l0.1-0.2l-0.1-0.2c-0.9-2.3,0.2-3.3,0.5-3.6l4.8-1.7c0.3-0.1,1.5-0.5,3.1-1.1c-0.9-0.4-1.8-1-2.6-1.6
		l-8.3,0c1.8,1.2,3.9,2.1,6,2.5l-3.2,1.2c0,0,0,0,0,0l0,0l-13.5,4.6c-0.2,1.3-0.2,2.5,0,3.8l12.5-4.3c0,0.1,0.1,0.2,0.1,0.3
		c-0.1,0.2-0.2,0.4-0.3,0.6l-12.2,4.2c0.2,1.1,0.6,2.2,1.2,3.2l4.3-1.5c-0.1,0.3-0.2,0.7-0.2,1L22,55.1c0.8,1.3,2,2.6,3.4,3.8
		c0.1,0.6,0.2,1.2,0.3,1.9c0.1,0.4,0.2,0.8,0.3,1.2c-7.1-4.7-11.8-12.8-11.8-22c0-4.6,1.2-9.2,3.5-13.2c0.4-0.7,0.9-1.4,1.4-2.1
		c0.2,0.1,0.5,0.1,0.7,0.2H31c-0.3-1.3-0.4-2.4-0.4-3.3l-17.5,0c1.3,1.1,2.9,2,4.9,2.8c-0.4,0.6-0.9,1.3-1.3,1.9
		c-2.4,4.2-3.7,8.9-3.7,13.7c0,15.1,12.3,27.4,27.4,27.4c15.1,0,27.4-12.3,27.4-27.4c0-0.6,0-1.3-0.1-1.9c1.4-1.1,2.5-1.9,2.8-2.2
		c0.7-0.5,1.3-0.7,1.7-0.7c0.5,0,0.9,0.4,1,0.8C73.4,36.1,73.7,33.9,71.9,33.5 M52.3,55.9l2.2,2.8l-1,1.3c-0.1-0.4,0-0.8,0.2-1.2
		l0,0l0,0c0,0,0,0,0,0l0,0l-1.6-2.3C52.2,56.3,52.3,56.1,52.3,55.9 M51.4,57.5c0.1-0.1,0.2-0.2,0.3-0.4l1.6,2.1l-1,1.3
		c-0.1-0.6,0.3-1.3,0.3-1.4l0,0L51.4,57.5z M50.4,58.4c0.2-0.1,0.4-0.3,0.6-0.4l1.1,1.7c-0.4,0.4-0.9,0.9-1.1,1.1
		c0-0.6,0.4-1.2,0.4-1.2S50.8,59,50.4,58.4 M45.3,60.5l4.6-1.6c0,0,0,0.1,0.1,0.1c0.2,0.3,0.3,0.6,0.4,0.8c-0.1,0.1-0.1,0.2-0.2,0.3
		l-5.1,1.7l0.5-0.7L45.3,60.5z M43.9,54.9c4.5-1.5,6.8-3,7.8-3.8c0.2,1.4,0.4,4.7-2.5,6.7c-0.1-0.2-0.1-0.4-0.2-0.6l-0.3-1.1l-0.5,1
		c-0.4,0.8-1.4,1.8-2.3,2.3c-0.3-0.5-0.7-1.6-0.8-2.5l0-1.1l-0.7,0.8c-0.2,0.3-0.4,0.5-0.6,0.6C43.5,56,43.8,55.2,43.9,54.9
		 M42.5,58.4c0.2-0.2,0.3-0.4,0.4-0.7l1.8,3.3l-0.9,1.3c-0.1-0.5,0.2-0.9,0.3-1.2L42.5,58.4z M41.5,59.5c0.2-0.1,0.3-0.3,0.5-0.5
		l1.3,2L42,62.8C41.8,62,42.3,61,42.3,61l0,0L41.5,59.5z M40.9,61.1c-0.1-0.2-0.3-0.5-0.5-0.8c0.2-0.1,0.3-0.2,0.5-0.4l0.9,1.6
		l-0.4,0.4c-0.1,0.1-0.5,0.6-0.8,1c-0.1-0.4-0.1-0.8,0.3-1.2l0.2-0.2L40.9,61.1z M33,54.6c0,0.7,0.2,1.4,0.5,2.1l0.3,0.7l0.4-0.7
		c0,0,0,0,0,0c0.2,0.7,0.6,1.5,0.9,2.1c-2.3-1-3.4-2.3-3.3-3.8v0L33,54.6z M37.9,62.4c-0.1,0.3-0.3,0.6-0.6,0.8
		c0-0.1-0.1-0.3-0.2-0.4c-0.3-0.5-0.9-0.9-1.8-1c0.2-0.7,0.1-1.4-0.3-2c0.4,0.2,0.9,0.3,1.3,0.5c0.4,0.1,0.7,0.2,1,0.4l0,0
		C37.5,60.6,38.2,61.6,37.9,62.4 M33.6,59.4c0.5,0.4,1.3,1.4,0.8,2.4c-0.1,0-0.1,0-0.2,0c-0.5,0.1-1.1,0.1-1.7,0.1
		C33.2,61.1,33.5,60.1,33.6,59.4 M31.5,61.3c-1.4-2-0.8-4.2-0.3-5.1c0.2,0.8,0.7,1.5,1.5,2.1C32.6,58.5,32.7,60.4,31.5,61.3
		 M32.3,50.7c0.1,0.3,0.2,0.5,0.3,0.8l-2.5,0.9c-0.1-0.3-0.2-0.5-0.3-0.8L32.3,50.7z M30.4,54.7c-0.4,0.2-0.8,0.4-1.1,0.6
		c-0.3-0.8-0.8-2.6-0.9-4.5C29,52.1,29.6,53.6,30.4,54.7 M30.4,61.6c-0.9-0.3-1.6-1-1.8-2.1c-0.3-1.5,0.1-2.4,0.8-3l0.1-0.1
		c0,0,0.1-0.1,0.2-0.1c0.2-0.1,0.4-0.2,0.6-0.3C29.7,57,29.1,59.4,30.4,61.6 M35.2,65.9c-2.8-0.6-5.5-1.6-8-3.1
		C26.5,61,26.1,59,26.1,57c0-2.4,0.5-4.7,1.5-6.5c0,0.2,0,0.4,0,0.5c0,1.6,0.4,3.2,0.8,4.3c0.1,0.2,0.2,0.4,0.2,0.6
		c-0.8,0.7-1.3,1.9-0.9,3.7c0.4,2.4,2.8,3.5,6.5,3c1.1-0.2,1.9,0.2,2.2,0.7c0.1,0.2,0.2,0.4,0.1,0.7C35.8,64.5,35.3,65.2,35.2,65.9
		 M39.5,66.4c-0.1,0-0.3,0-0.4,0c0.2-0.1,0.4-0.2,0.5-0.3C39.6,66.2,39.5,66.3,39.5,66.4 M39.7,64.4c-0.5,0.8-1.2,1.2-2,1.2
		c-0.6,0-1.1-0.2-1.4-0.4c0.2-0.3,0.5-0.6,0.9-0.8v0c0.9-0.4,1.5-1,1.7-1.8c0.1-0.3,0.1-0.7,0.1-1C39.6,62.5,39.8,63.4,39.7,64.4
		L39.7,64.4z M39.9,58l-0.2-1l-0.6,0.9c-0.5,0.7-1.7,1.4-2.5,1.4c-0.6-0.6-1.6-2.2-1.6-3.5l-0.1-1l-0.7,0.7
		c-0.1,0.1-0.1,0.1-0.2,0.2c-0.5-2,0.1-4,1-5.6c-0.2,1.1-0.2,2.4,0.2,3.8l0.3,0.8l0.4-0.6c0.3,1,0.8,1.9,1.3,2.3l0.1,0.1l0.2,0
		c0.6,0,1.6-0.4,2.4-1l0,0.6l0.6-0.3c1.4-0.7,2.4-1.7,3.1-3.1c-0.6,2.7-1.7,4.9-3.6,5.8C39.9,58.4,39.9,58.2,39.9,58 M40.5,66.4
		c0,0-0.1,0-0.1,0c0.1-0.2,0.1-0.4,0.1-0.7c0-0.2,0-0.5,0.1-0.7c0,0,0,0,0,0l0,0c0-0.2,0-0.4,0-0.6l0.9-0.3c0,0,0,0,0,0l0.4,0.5
		l0.6-0.9l0.5-0.2c0,0,0,0,0,0l0.2,0.9l0.9-1.2l6.1-2c0.1,0.3,0.1,0.5,0.1,0.5l0.3,0.6l0.4-0.5c0,0,0.2-0.2,0.4-0.5
		c0,0.2,0,0.2,0,0.3l0.1,1l1.1-1.3c0,0,0,0,0,0l0.1,1.2l1.6-2.2c0.1,0.6,0.3,1.2,0.6,1.6C50.8,64.8,45.8,66.4,40.5,66.4 M55.6,61.6
		c-0.3-0.6-0.5-1.2-0.5-2c0,0,0,0,0,0l1.6-0.5c-0.1,0.6,0.1,1.1,0.3,1.5C56.6,60.9,56.1,61.3,55.6,61.6 M55.2,58.3l-0.8-1.1l3.9-1.4
		l1.4,0.9L55.2,58.3z M62,55.3c-0.2,0.3-0.5,0.7-0.7,1l-1.4,0.5v-2.6l2.2-0.8L62,55.3z M63.6,52.8c-0.3,0.1-0.7,0.4-0.9,0.7l-2-1.4
		l-2.8,0.8v2.2l-4,1.4l-1.4-1.9c0.5-1.8,0.2-3.6,0-4.2c1.9-1.7,9.6-7.7,14.4-11.5c0,0.4,0,0.7,0,1.1C66.9,44.7,65.7,49.1,63.6,52.8"
		/>
	<path d="M60.3,25.6c-5.6-1.8-10.8-1.1-13.4-0.6c0.1,1.1,0.3,2,0.6,2.9c1.9-0.3,4.7-0.5,7.7-0.1C56.9,26.7,58.7,26,60.3,25.6"/>
	<path d="M63,25.7c2.4,1.1,4.8,2.7,7,5l3.2-2.8c-3-3.3-6.4-5.4-9.9-6.5c-0.5,1-1.1,2.8-0.4,4.2L63,25.7z"/>
	<path d="M69,30.9c-2.2-2.2-4.7-3.7-7.1-4.7c-1.3,0.1-3.4,0.7-5.4,1.7c2.5,0.4,5.1,1.3,7.5,2.8C66.3,30.4,68.2,30.7,69,30.9"/>
	<path d="M60,32.2c0.9-0.6,1.9-1,2.9-1.3c-2.5-1.3-5-2-7.4-2.3c-1.2,0.8-2.3,1.8-3.1,2.9c2.1,0.6,4.4,0.7,6.1,0.7
		C59,32.3,59.5,32.3,60,32.2"/>
	<path d="M27.8,17.4H9.6c0.6,1.1,1.5,2.2,2.6,3.3l17.7,0C28.9,19.9,28.2,18.8,27.8,17.4"/>
</g>
<rect class="st0" width="80" height="80"/>
</svg>
