<!-- Generator: Adobe Illustrator 23.0.4, SVG Export Plug-In  -->
<svg version="1.1" xmlns="http://www.w3.org/2000/svg" xmlns:xlink="http://www.w3.org/1999/xlink" x="0px" y="0px" width="120px"
	 height="80px" viewBox="0 0 120 80" style="enable-background:new 0 0 120 80;" xml:space="preserve">
<style type="text/css">
	.st0{opacity:0;fill-rule:evenodd;clip-rule:evenodd;}
</style>
<defs>
</defs>
<g>
	<polygon points="60.4,54.9 8.8,28.9 60.4,6.1 111.4,28.9 60.4,54.9 60.4,57.7 117.3,28.7 60.4,3.5 3.3,28.9 60.4,57.7 	"/>
	<polygon points="46.6,42.4 49.8,42.4 49.8,31.7 55.1,31.7 55.1,28.9 49.8,28.9 49.8,21.5 55.5,21.5 55.5,18.8 46.6,18.8 	"/>
	<polygon points="60.5,21.2 60.6,21.2 64.3,42.4 67.5,42.4 70.9,21.2 70.9,21.2 70.9,42.4 74,42.4 74,18.8 68.9,18.8 65.9,36.8
		65.9,36.8 62.9,18.8 57.7,18.8 57.7,42.4 60.5,42.4 	"/>
	<path d="M29.6,60.6l-3.5,15.8h2.2l0.7-4h3.4l0.7,4h2.2l-3.2-15.8H29.6z M29.4,70.6l1.4-7.6h0l1.4,7.6H29.4z"/>
	<path d="M40,60.6h-3.6v15.8h2.2v-6.9H40c3,0,3.5-0.8,3.5-4.5C43.6,61.4,43,60.6,40,60.6z M39.8,67.7h-1.1v-5.3h1.1
		c1.5,0,1.6,0.2,1.6,2.6C41.4,67.5,41.2,67.7,39.8,67.7z"/>
	<path d="M48.6,60.6h-3.6v15.8h2.2v-6.9h1.4c3,0,3.5-0.8,3.5-4.5C52.1,61.4,51.5,60.6,48.6,60.6z M48.3,67.7h-1.1v-5.3h1.1
		c1.5,0,1.6,0.2,1.6,2.6C49.9,67.5,49.8,67.7,48.3,67.7z"/>
	<path d="M60.3,71c0-1.5-0.5-2.3-2-2.4v0c1.8-0.5,2.1-1.5,2.1-3.6c0-3.5-0.3-4.3-3.5-4.3h-3.4v15.8h2.2v-6.9h0.7
		c1.4,0,1.7,0.4,1.7,1.9V75c0,0.6,0,1,0.3,1.4h2.1c-0.1-0.7-0.1-1.4-0.1-2V71z M56.2,67.7h-0.6v-5.3h1.1c1.4,0,1.5,0.2,1.5,2.6
		C58.2,67.4,57.9,67.7,56.2,67.7z"/>
	<path d="M65.6,60.5c-3,0-3.7,1.9-3.7,4.2v8c0,2.5,0.9,3.9,3.7,3.9c3,0,3.7-1.9,3.7-4.2v-8C69.3,62,68.4,60.5,65.6,60.5z M67.1,72.8
		c0,1.4-0.6,2.1-1.5,2.1c-0.9,0-1.5-0.7-1.5-2.1v-8.3c0-1.6,0.5-2.3,1.5-2.3c1,0,1.5,0.7,1.5,2.3V72.8z"/>
	<polygon points="74.2,73.2 74.2,73.2 71.9,60.6 69.7,60.6 72.9,76.4 75.5,76.4 78.7,60.6 76.5,60.6 	"/>
	<polygon points="79.7,76.4 85.6,76.4 85.6,74.6 81.9,74.6 81.9,69.3 85.4,69.3 85.4,67.4 81.9,67.4 81.9,62.5 85.6,62.5 85.6,60.6
		79.7,60.6 	"/>
	<path d="M90.1,60.6h-3.5v15.8h3.2c3.5,0,4.2-1.3,4.2-5.3v-4.7C93.9,61.8,93.6,60.6,90.1,60.6z M91.7,71c0,2.7-0.3,3.6-1.9,3.6h-1.1
		V62.5h0.9c1.9,0,2.1,0.8,2.1,3.1V71z"/>
	<path d="M13.4,40.1c-2.1,0-2.6,1.4-2.6,2.9v5.5c0,1.7,0.6,2.7,2.5,2.7c1.8,0,2.2-0.9,2.2-2V48h-1.4v0.8c0,0.9-0.4,1.3-0.9,1.3
		c-0.5,0-0.9-0.2-0.9-1.5v-5.4c0-1.3,0.2-1.9,0.9-1.9c0.6,0,0.9,0.4,0.9,1.1v0.8h1.4v-1.1C15.6,40.9,14.9,40.1,13.4,40.1z"/>
	<path d="M103.3,49c0,0.7-0.3,1.1-1,1.1c-0.8,0-1.1-0.4-1.1-1.1v-8.7h-1.5v8.5c0,1.3,0.5,2.6,2.6,2.6c2.1,0,2.6-1.3,2.6-2.6v-8.5
		h-1.5V49z"/>
	<path d="M107.2,42.5c0-0.9,0.3-1.2,0.9-1.2c0.6,0,0.8,0.4,0.8,1v0.9h1.4v-1c0-0.8-0.2-1.2-0.4-1.4c-0.4-0.3-1-0.6-1.8-0.6
		c-1.7,0-2.5,0.8-2.5,2.6c0,1.5,0.8,2.4,1.8,3.3c1.6,1.6,1.6,1.9,1.6,2.8c0,0.7-0.2,1.3-1,1.3c-0.6,0-0.9-0.5-0.9-1.2V48h-1.5v1.3
		c0,1.4,1,2,2.4,2c1.8,0,2.5-1,2.5-2.7c0-1.3-0.3-1.9-1.8-3.4C107.4,43.7,107.2,43.3,107.2,42.5z"/>
</g>
<rect class="st0" width="120" height="80"/>
</svg>
