<!-- Generator: Adobe Illustrator 23.0.4, SVG Export Plug-In  -->
<svg version="1.1" xmlns="http://www.w3.org/2000/svg" xmlns:xlink="http://www.w3.org/1999/xlink" x="0px" y="0px" width="188px"
	 height="80px" viewBox="0 0 188 80" style="enable-background:new 0 0 188 80;" xml:space="preserve">
<style type="text/css">
	.st0{opacity:0;fill-rule:evenodd;clip-rule:evenodd;}
</style>
<defs>
</defs>
<g>
	<path d="M21.7,68.9c-0.4,0-2.7-0.5-3-0.5c-3.8-0.9-6.9-4.5-6.9-8.7c0-13,0-25.9,0-38.9c0-0.7,0-1.5,0.2-2.2c0.3-2,1.3-3.7,2.8-5
		c1.8-1.6,3.9-2.3,6.3-2.3c49.1,0,98.2,0,147.2,0c2.4,0,4.5,0.7,6.3,2.3c1.9,1.7,3,3.8,3,6.3c0,13.4,0,26.7,0,40.1
		c0,0.7-0.1,1.4-0.3,2.1c-1.1,3.3-3.2,5.5-6.6,6.3c-0.2,0.1-0.5,0.1-0.7,0.2 M94.7,13.8c-16.7,0-33.4,0-50.1,0c-7.9,0-15.7,0-23.6,0
		c-3.6,0-6.6,3-6.6,6.5c0,13.1,0,26.2,0,39.3c0,0.6,0.1,1.2,0.3,1.7c0.8,2.7,3.4,4.7,6.6,4.7c48.9,0,97.8,0,146.7,0
		c0.5,0,1-0.1,1.5-0.1c2.2-0.3,3.8-1.5,4.9-3.5c0.6-1.1,0.8-2.2,0.8-3.4c0-12.7,0-25.4,0-38.2c0-0.4,0-0.7,0-1.1
		c-0.2-1.8-1-3.2-2.3-4.4c-1.3-1.1-2.8-1.6-4.5-1.6C143.7,13.8,119.2,13.8,94.7,13.8z"/>
	<path d="M57.2,19.3c0,8.5,0,17,0,25.5c-0.2,0-0.3,0.1-0.5,0.1c-4.4,0-8.8,0-13.2,0c-0.1,0-0.2,0-0.3-0.1c0-0.2-0.1-0.5-0.1-0.7
		c0-2.4,0-4.8,0-7.2c0-0.3,0-0.6-0.1-1c-2.9,0-5.6,0-8.4,0c-0.3,0.3-0.2,0.6-0.2,1c0,2.4,0,4.7,0,7.1c0,0.3,0,0.6,0,1
		c-1,0.1-2,0-2.9,0c-0.9,0-1.9,0-2.8,0c-0.9,0-1.8,0-2.8,0c-0.9,0-1.9,0-2.8,0c-0.9,0-1.9,0-2.8,0c-0.2-0.8-0.2-24.4-0.1-25.7
		c4.7-0.1,9.3-0.1,14.1,0c0.1,2.8,0,5.6,0.1,8.5c2.9,0.1,5.7,0,8.6,0c0-2.9,0-5.7,0-8.4c0.1-0.1,0.2-0.1,0.3-0.1c4.5,0,9,0,13.6,0
		C57,19.2,57.1,19.3,57.2,19.3z"/>
	<path d="M131.7,34.6c3.4,3.4,6.9,6.7,10.2,10.2c-0.8,0.2-13.9,0.3-15.8,0.1c-2.2-2.6-4.4-5.4-6.7-8.2c-0.3,0.8-0.1,1.4-0.1,2.1
		c0,0.7,0,1.3,0,2c0,0.7,0,1.3,0,2c0,0.7,0,1.3,0,2c-0.2,0.1-0.3,0.1-0.4,0.1c-4.4,0-8.7,0-13.1,0c-0.1,0-0.2-0.1-0.4-0.1
		c0-8.5,0-17,0-25.5c0.1,0,0.2-0.1,0.3-0.1c5.8,0,11.5,0,17.3,0c1.9,0,3.8,0,5.6,0.3c2.2,0.3,4.4,0.8,6.4,1.9c1.9,1,3.3,2.5,3.8,4.6
		c0.6,2.7-0.1,5.1-2.3,6.7c-1.3,0.9-2.7,1.4-4.2,1.6c-0.2,0-0.4,0-0.5,0.1C131.9,34.5,131.8,34.5,131.7,34.6z M125.7,28.4
		c-0.2-1.4-1.1-2-2.3-2.3c-0.7-0.1-1.3-0.2-2-0.2c-0.7,0-1.3,0-2,0c-0.2,0.9-0.2,4.2,0,5c1.3,0,2.7,0.1,4-0.3
		C124.7,30.3,125.5,29.7,125.7,28.4z"/>
	<path d="M103.2,44.8c-0.9,0.2-14.5,0.2-15.3,0c-0.4-1-0.8-2-1.2-3c-1.1-0.2-10-0.1-10.7,0c-0.4,1-0.8,1.9-1.2,3
		c-0.3,0-0.6,0.1-0.9,0.1c-4.5,0-9,0-13.6,0c-0.2,0-0.5,0-0.8-0.1c4.7-8.6,9.3-17,14-25.6c0.2,0,0.5-0.1,0.8-0.1c4.7,0,9.3,0,14,0
		c0.4,0,0.7,0,1.1,0C94,27.8,98.6,36.2,103.2,44.8z M84.1,35.4c-0.3-0.7-0.5-1.3-0.8-2c-0.3-0.7-0.6-1.3-0.8-2
		c-0.3-0.7-0.5-1.4-0.7-2.2c-0.2-0.7-0.2-1.4-0.5-2c-0.4,1.3-0.7,2.6-1.1,3.9c-0.4,1.2-0.9,2.3-1.4,3.5c-0.1,0.3-0.2,0.6-0.3,0.9
		C79.7,35.6,83.4,35.5,84.1,35.4z"/>
	<path d="M172,19.3c0,2.8,0,5.5,0,8.3c-0.9,0.2-1.7,0.1-2.6,0.1c-0.9,0-1.7,0-2.6,0c-0.9,0-1.7,0-2.5,0c-0.3,0.4-0.2,0.7-0.2,1
		c0,5,0,10,0,15c0,0.3,0,0.7,0,1.1c-0.4,0-0.7,0.1-1,0.1c-4.2,0-8.3,0-12.5,0c-0.2,0-0.5,0-0.8-0.1c0-5.7,0-11.4,0-17.1
		c-2.7,0-5.2,0-7.7,0c-0.2-0.7-0.2-7.4-0.1-8.4c0,0,0,0,0.1-0.1c0,0,0.1,0,0.1,0c9.1,0,18.2,0,27.3,0c0.7,0,1.5,0,2.2,0
		C171.9,19.2,171.9,19.3,172,19.3z"/>
	<path d="M154.4,59.7c0-3.9,0-7.6,0-11.5c0.3,0,0.5-0.1,0.7-0.1c1.8,0,3.7-0.1,5.5,0c1.8,0.1,3.5,0.1,5.2,0.6
		c1.4,0.4,2.6,1.1,3.7,2.1c1.6,1.5,1.6,4.5,0,6c-1.3,1.3-2.8,2-4.6,2.3c-1.3,0.2-2.5,0.3-3.8,0.4c-2,0.1-4.1,0-6.1,0
		C154.8,59.7,154.7,59.7,154.4,59.7z M160.5,51.8c-0.1,1.2-0.1,3.7,0.1,4.4c0.9,0.1,1.8,0,2.7-0.4c0.8-0.3,1.3-1,1.3-1.9
		c0-0.9-0.4-1.5-1.3-1.9C162.3,51.7,161.4,51.7,160.5,51.8z"/>
	<path d="M67.2,50.9c-0.9,0.4-1.8,0.5-2.6,0.7c-0.9,0.2-1.8,0.5-2.7,0.7c-0.9-1-2.1-1.1-3.3-0.9c-1.4,0.2-2.2,1.3-2.2,2.6
		c0,0.8,0.4,1.5,1.1,1.9c1.1,0.7,2.4,0.8,3.6,0.2c0.2-0.1,0.3-0.2,0.6-0.4c-0.9-0.4-1.7-0.1-2.5-0.2C58.9,55,58.9,54,59.1,53
		c3,0,6.1,0,9.2,0c0.5,0.8,0.2,1.6,0,2.3c-0.3,1.3-1.2,2.2-2.3,2.9c-1.4,1-3.1,1.4-4.8,1.7c-1.9,0.3-3.8,0.1-5.7-0.4
		c-1.5-0.4-2.8-1.1-3.9-2.2c-1.8-1.8-1.8-4.8,0-6.6c1.3-1.3,2.8-2,4.5-2.4c2.4-0.6,4.8-0.5,7.2,0.2C64.7,48.9,66.1,49.7,67.2,50.9z"
		/>
	<path d="M123.1,48.2c0.3,0,0.6,0,0.9,0c2.2,0,4.3,0,6.5,0c1.2,0,2.5,0.2,3.7,0.4c1,0.2,2,0.7,2.7,1.5c1.3,1.5,0.9,3.7-0.9,4.5
		c-0.5,0.2-1,0.3-1.6,0.5c1.5,1.5,2.8,3,4.3,4.5c-0.7,0.2-3.9,0.3-6.7,0.1c-0.9-1.1-1.8-2.3-2.9-3.6c-0.2,0.7-0.1,1.3-0.1,1.8
		c0,0.6,0,1.1,0,1.7c-0.7,0.2-4.7,0.2-5.9,0.1C123,59,122.9,49.6,123.1,48.2z M129.1,53.4c0.7,0,1.3,0.1,1.9-0.2
		c0.4-0.2,0.7-0.5,0.7-0.9c0-0.5-0.2-0.9-0.7-1c-0.6-0.2-1.3-0.3-1.9-0.1C129,51.9,129,52.5,129.1,53.4z"/>
	<path d="M30.8,55c1.4,1.6,2.8,3,4.2,4.5c-0.6,0.2-5.2,0.3-6.7,0.1c-0.9-1.1-1.8-2.3-2.9-3.7c-0.2,1.3,0,2.5-0.1,3.6
		c-0.7,0.2-4.9,0.2-5.8,0.1c-0.2-0.6-0.2-10.3,0-11.4c0.2,0,0.5-0.1,0.8-0.1c2.5,0,4.9,0,7.4,0c1.3,0,2.7,0.2,3.9,0.7
		c1,0.4,1.8,1,2.2,2.1c0.5,1.3,0.1,3-1.6,3.7C31.8,54.7,31.3,54.9,30.8,55z M25.4,51c-0.1,0.9-0.2,1.6,0,2.4c1,0,2,0.2,2.6-0.8
		c0-0.9-0.2-1.2-1-1.4C26.6,51.1,26.1,51.1,25.4,51z"/>
	<path d="M78.9,58.6c0.6-1.1,1.3-2,1.9-3c0.8,0.3,1.5,0.6,2.2,0.8c0.8,0.2,1.6,0.3,2.3,0.4c0.4,0,0.8-0.1,1.1-0.5
		c0-0.4-0.3-0.5-0.6-0.6c-0.6-0.1-1.1-0.3-1.7-0.3c-0.9-0.1-1.8-0.3-2.6-0.7c-1.9-0.9-2.3-3-0.8-4.6c0.9-0.9,2.1-1.4,3.3-1.7
		c2.2-0.5,4.3-0.4,6.4,0.1c0.7,0.2,1.4,0.4,2.2,0.6c-0.5,1.1-1.1,2-1.8,2.9c-1.5-0.4-3-1.2-4.6-0.6c-0.2,0.4,0,0.7,0.3,0.8
		c0.7,0.2,1.4,0.3,2,0.5c0.9,0.2,1.9,0.3,2.7,0.7c1.9,1,2.3,3.1,0.8,4.6c-0.8,0.8-1.7,1.2-2.7,1.6c-1.3,0.4-2.7,0.6-4.1,0.5
		c-2-0.1-4.1-0.4-6-1.2C79.2,58.8,79.1,58.7,78.9,58.6z"/>
	<path d="M119.9,55.4c-1.7,0-3.3,0-4.9,0c0,0.4,0,0.8,0,1.2c0.9,0.2,1.8,0.1,2.7,0.1c0.9,0,1.8,0,2.8,0c0,1,0,1.9,0,2.8
		c-0.1,0.1-0.1,0.1-0.1,0.1c0,0-0.1,0-0.1,0c-3.6,0-7.3,0-10.9,0c-0.1,0-0.2,0-0.4-0.1c0-0.2-0.1-0.3-0.1-0.5c0-3.5,0-7,0-10.5
		c0-0.1,0-0.2,0.1-0.3c0.2,0,0.4-0.1,0.6-0.1c3.4,0,6.7,0,10.1,0c0.2,0,0.5,0.1,0.7,0.1c0,1,0,1.9,0,3c-0.9,0-1.8,0-2.7,0
		c-0.9,0-1.8,0-2.7,0c0,0.4,0,0.7,0,1.1c0.8,0.2,1.6,0.1,2.4,0.1c0.8,0,1.6,0,2.4,0C120,53.4,119.8,54.3,119.9,55.4z"/>
	<path d="M151.7,48.2c0,1,0,1.9,0,3c-1.8,0.1-3.6,0-5.4,0.1c0,0.4,0,0.7,0,1.1c0.8,0.1,1.6,0,2.4,0c0.8,0,1.6,0,2.4,0
		c0.2,1,0,1.9,0.1,2.9c-1.7,0.1-3.3,0-4.9,0.1c0,0.4,0,0.8,0,1.2c1.8,0.1,3.6,0,5.4,0.1c0.2,0.9,0,1.9,0.1,2.8
		c-0.7,0.2-9.7,0.3-11.4,0.1c-0.2-0.6-0.2-9.8-0.1-11.4c0.2,0,0.4-0.1,0.6-0.1c3.4,0,6.8,0,10.2,0C151.2,48.2,151.4,48.2,151.7,48.2
		z"/>
	<path d="M42.7,52.4c1.5,0,3.1,0,4.8,0c0.1,1,0,1.9,0.1,2.9c-0.9,0.1-1.7,0-2.5,0.1c-0.8,0-1.6,0-2.5,0c0,0.5,0.1,0.9,0.1,1.3
		c1.9,0,3.6,0,5.5,0c0.1,1,0.1,1.9,0.1,3c-1,0.2-1.9,0.1-2.9,0.1c-1,0-2,0-2.9,0c-0.9,0-1.9,0-2.8,0c-0.9,0-1.9,0-2.8,0
		c-0.2-0.8-0.2-10.4-0.1-11.4c0.6-0.2,10-0.2,11.3,0c0.2,0.9,0,1.9,0.1,3c-1.8,0.1-3.6,0-5.3,0C42.4,51.6,42.4,52,42.7,52.4z"/>
	<path d="M93.8,52c0-1.3,0-2.5,0-3.6c0.8-0.2,11.3-0.3,12.9-0.1c0.2,0.6,0.2,2.5,0.1,3.7c-1.1,0-2.1,0-3.3,0.1
		c-0.1,0.9-0.1,1.8-0.1,2.6c0,0.8,0,1.6,0,2.5c0,0.8,0,1.7,0,2.5c-0.8,0.2-5.2,0.2-6.1,0c0-1.3,0-2.5,0-3.8c0-1.2,0-2.5,0-3.8
		C96.1,52,95.1,52,93.8,52z"/>
	<path d="M71,48.3c1.1-0.2,5.4-0.1,6.1,0.1c0,3.7,0,7.5,0,11.2c-0.6,0.2-4.8,0.2-6.1,0.1C70.8,59,70.8,49.1,71,48.3z"/>
	<path d="M166.1,31.7c0-1.7,1.3-2.6,2.6-2.5c1.2,0.1,2.2,1.2,2.2,2.4c0,1.2-1,2.4-2.2,2.5C167.4,34.3,166.1,33.4,166.1,31.7z
		 M170.5,31.6c0-1.1-0.9-1.9-2-1.9c-1.1,0-1.9,0.9-1.9,2c0,1.1,0.9,2,2,2C169.7,33.6,170.5,32.8,170.5,31.6z"/>
	<path d="M169.5,31.2c0-0.8-1.1-0.6-1.9-0.5c0,0-0.1,0-0.1,0c0,0.7,0,1.4,0,2.2c0.2,0,0.3,0,0.4,0C168,32.6,168,32,168,32l0.4,0
		l0.6,0.9c0,0,0.3,0,0.5-0.1c-0.2-0.4-0.4-0.6-0.5-0.9C169,31.9,169.5,31.9,169.5,31.2z M168.8,31.6c-0.2,0-0.8,0-0.8,0V31
		c0,0,0.6,0,0.8,0c0.2,0,0.3,0.2,0.3,0.3C169.1,31.5,169,31.6,168.8,31.6z"/>
</g>
<rect class="st0" width="188" height="80"/>
</svg>
