<!-- Generator: Adobe Illustrator 23.0.4, SVG Export Plug-In  -->
<svg version="1.1" xmlns="http://www.w3.org/2000/svg" xmlns:xlink="http://www.w3.org/1999/xlink" x="0px" y="0px" width="80px"
	 height="80px" viewBox="0 0 80 80" style="enable-background:new 0 0 80 80;" xml:space="preserve">
<style type="text/css">
	.st0{opacity:0;fill-rule:evenodd;clip-rule:evenodd;}
</style>
<defs>
</defs>
<path d="M7.5,7.5v8.2c3.3-0.7,6.7-0.8,10.1-0.7c4.4,0.1,8.7,0.8,12.9,2.1c0.3,0.1,0.6,0.2,0.9,0.3c0.1,0,0.1,0.1,0.2,0.1
	c-0.1,0-0.2,0-0.3,0.1c-2.7,0-5.4,0.1-8.1,0.1c-0.4,0-0.7,0-1.1-0.1c-3.4-0.9-6.9-1.5-10.5-1.4c-1.4,0-2.8,0.2-4.2,0.3v56.1h50.8
	c0.1-0.9,0.3-1.9,0.4-2.8c0.3-2.2,0.5-4.5,0.5-6.7c0-0.1,0-0.5,0-0.5l-23.8,0l0.3-1.6c0,0,15.6,0,23.5,0c0-0.7-0.1-1.3-0.1-2
	c-7.6,0-22.9,0-22.9,0l0.3-1.7c0,0,14.9,0,22.5,0c-0.1-0.7-0.2-1.3-0.2-1.9c-7.3,0-21.9,0-21.9,0l0.3-1.7c0,0,14.2,0,21.3,0
	c-0.7-3.6-1.8-6.9-3.5-10.1c1.4-0.1,2.7,0,4-0.1c1.8,3.2,2.8,6.6,3.6,10.1l10.1,0v1.7c0,0-6.5,0-9.8,0c0.1,0.7,0.2,1.3,0.3,1.9
	c0,0,3.4,0,4.7,0c1.6,0,4.8,0,4.8,0v1.6c0,0-6.2,0-9.4,0c0.1,0.8,0.1,1.4,0.1,2.2c3.1,0,9.2,0,9.2,0v1.4l-9.2,0c0,0.2,0,0.3,0,0.5
	c0,2.3-0.2,4.7-0.5,7c-0.1,0.9-0.3,1.8-0.5,2.7h10.2v-65H7.5z M33.4,15.3c0.7-2,2.2-3.2,4.2-3.7c2.4-0.6,4.6-0.2,6.4,1.6
	c1.3,1.3,1.6,3,1.6,4.9c-4.1-1.4-7.7-0.5-11.1,2.1c0.2-1,0.3-1.8,0.5-2.7c-0.7,0-1.3,0-1.9,0C33,16.7,33.1,15.9,33.4,15.3z
	 M12.1,41.8c1.4-7.4,2.9-14.8,4.3-22.3c1.5,0,2.9,0,4.4,0c-1.4,7.4-2.7,14.8-4.1,22.3C15.2,41.8,13.7,41.8,12.1,41.8z M29.9,37
	c-0.3,1.6-0.6,3.2-0.9,4.7c-3.5,0-6.9,0-10.4,0c1.3-7.5,2.6-14.9,4.2-22.2c3.4,0,6.6,0,10,0c-0.3,1.6-0.5,3.2-0.8,4.9
	c-1.8,0-3.6,0-5.4,0c-0.3,1.4-0.6,2.8-0.8,4.2c1.9,0.1,3.7,0.1,5.6,0.2c-0.2,1.2-0.4,2.4-0.6,3.6c-1.9,0-3.7,0-5.6,0
	c-0.3,1.5-0.6,3-1,4.6C26,36.9,27.9,37,29.9,37z M42.7,40.5c-1,0.8-2.1,1.2-3.3,1.4c-1.7,0.3-3.3,0.1-4.9-0.6
	c-1-0.4-1.7-1.1-2.3-2.1c-0.6-1.2-1-2.5-1-3.8c-0.2-4.6,1-8.9,3.9-12.6c1.4-1.7,3.2-2.9,5.5-3.3c1.3-0.2,2.6-0.2,3.9,0.3
	c0.8,0.3,1.5,0.8,2.1,1.5c-0.6,2.1-1.1,4.2-1.7,6.3c-0.7,0-1.4,0-2.1,0c0.1-0.8,0.3-1.7,0.4-2.5c-1.1-0.9-2.4-0.9-3.6-0.2
	c-0.9,0.6-1.5,1.4-1.9,2.3c-1.1,2.2-1.7,4.6-1.4,7.1c0.2,1.8,1.4,2.5,2.9,2.4c1.4-0.1,2.6-0.5,3.8-1.2c0.2-0.1,0.3-0.2,0.5-0.3
	c0,0,0,0,0.2,0C43.3,37.1,43,38.8,42.7,40.5z M67.4,41.8c-1.6,0-3.1,0-4.7,0c-0.5-1.2-0.9-2.4-1.4-3.7c-1.1,1.3-2.1,2.5-3.1,3.7
	c-4.9,0-9.7,0-14.6,0c1.4-7.4,2.7-14.8,4.1-22.2c3.4,0,6.8,0,10.2,0c-0.3,1.6-0.6,3.2-0.9,4.9c-1.8,0-3.6,0-5.4,0
	c-0.3,1.4-0.6,2.8-0.8,4.2c1.9,0.1,3.7,0.1,5.6,0.2c-0.2,1.2-0.4,2.4-0.6,3.6c-1.9,0-3.7,0-5.6,0c-0.3,1.5-0.6,3-1,4.5
	c2,0.1,3.9,0.1,5.9,0.2c-0.2,1.1-0.4,2.2-0.7,3.3c0,0,0,0,0.1,0c1.7-2.2,3.4-4.4,5.2-6.6c-0.8-2-1.6-4-2.4-6.1
	c1.2-0.9,2.3-1.7,3.6-2.6c0.6,1.5,1.2,3,1.8,4.5c1.3-1.5,2.5-3,3.8-4.5c1,0.8,1.9,1.7,2.9,2.5c-1.6,2.2-3.2,4.3-4.8,6.5
	C65.5,36.6,66.4,39.1,67.4,41.8z"/>
<rect class="st0" width="80" height="80"/>
</svg>
