<!-- Generator: Adobe Illustrator 23.0.4, SVG Export Plug-In  -->
<svg version="1.1" xmlns="http://www.w3.org/2000/svg" xmlns:xlink="http://www.w3.org/1999/xlink" x="0px" y="0px" width="91.8px"
	 height="80px" viewBox="0 0 91.8 80" style="enable-background:new 0 0 91.8 80;" xml:space="preserve">
<style type="text/css">
	.st0{opacity:0;fill-rule:evenodd;clip-rule:evenodd;}
</style>
<defs>
</defs>
<g>
	<path d="M66,4.9L25.4,4.8L5.1,40l20.3,35.2L66,75.2l20.3-35.1L66,4.9z M63.2,70.4l-35.1,0L10.6,40L28.2,9.6l35.1,0l17.5,30.4
		L63.2,70.4z"/>
	<path d="M64.6,57.4c-0.9,0-1.3-0.2-1.6-0.9l-4.1-7.1l4-6.9c0.4-0.7,0.8-0.9,1.6-0.9h1.4v-4h-1.4c-2,0-4,1-5.1,2.9l-2.8,4.9
		l-2.8-4.9c-1.1-1.9-3.1-2.9-5.1-2.9h-1.4v4h1.4c0.9,0,1.3,0.2,1.6,0.9l4,6.9l-4.1,7.1c-0.4,0.7-0.8,0.9-1.6,0.9h-1.4v4h1.4
		c2,0,4-1,5.1-2.9l2.9-5.1l2.9,5.1c1.1,1.9,3.1,2.9,5.1,2.9h1.4v-4H64.6z"/>
	<path d="M34.3,22.8c1.9,0,3.6,0.8,4.8,2.1l2.8-2.8c-1.9-2.1-4.7-3.4-7.6-3.4c-5.9,0-10.7,5.1-10.7,11.3c0,4.3,2.3,8,5.6,9.9
		c-3.3,1.9-5.6,5.7-5.6,9.9c0,6.2,4.8,11.3,10.7,11.3c3,0,5.7-1.3,7.6-3.4l-2.8-2.8c-1.2,1.3-2.9,2.1-4.8,2.1
		c-3.8,0-6.8-3.2-6.8-7.2c0-3.9,2.9-7,6.6-7.2l0-0.1h4.8v-2.4v-0.6v-2.4h-4.8l0-0.1c-3.7-0.1-6.6-3.2-6.6-7.2
		C27.6,26,30.6,22.8,34.3,22.8z"/>
</g>
<rect class="st0" width="91.8" height="80"/>
</svg>
