<!-- Generator: Adobe Illustrator 23.0.4, SVG Export Plug-In  -->
<svg version="1.1" xmlns="http://www.w3.org/2000/svg" xmlns:xlink="http://www.w3.org/1999/xlink" x="0px" y="0px" width="80px"
	 height="80px" viewBox="0 0 80 80" style="enable-background:new 0 0 80 80;" xml:space="preserve">
<style type="text/css">
	.st0{opacity:0;fill-rule:evenodd;clip-rule:evenodd;}
</style>
<defs>
</defs>
<g id="layer1_1_" transform="translate(88.071071,-63.192393)">
	<path d="M-80.1,71.2v64h64v-64H-80.1z M-61,89.1c0-1.8,1.8-3,3-3c1.2,0,3.3,0,3.3,0h9.4v2.3c0,0-8.1,0-9.4,0
		c-1.3,0-1.3,1.1-1.3,1.7c0,0.6,0,4.9,0,5.4c0,0.6-0.2,1.2,0.8,1.2c1,0,7.4,0,7.4,0v1.8c0,0-6.7,0-7.6,0c-0.6,0-0.6,1.1-0.6,1.8
		c0,0.7,0,5.6,0,6.5c0,0.9,0.7,1.5,2.3,1.5s8.7,0,8.7,0v2c0,0-9.8,0-12.2,0c-2.4,0-3.8-2.4-3.8-3.8C-61,105.1-61,90.9-61,89.1z
		 M-73.1,86.6h5.2v23.6h-5.2V86.6z M-73.1,118.8h43c0,0.2-0.1,0.4-0.1,0.6c0,0.2,0,0.4,0.1,0.6h-43V118.8z M-73.1,122.7v-1.1h43.5
		c0.2,0.4,0.5,0.8,0.8,1.1H-73.1z M-29.5,117.2h-43.5V116h44.3C-29,116.4-29.3,116.8-29.5,117.2z M-25.2,122.7
		c-1.9,0-3.4-1.5-3.4-3.4c0-1.9,1.5-3.4,3.4-3.4c1.9,0,3.4,1.5,3.4,3.4C-21.9,121.2-23.4,122.7-25.2,122.7z M-31.6,110.8
		c-4.7,0-12.4-3.3-12.4-12.4c0-8.3,6.8-12.8,12.1-12.8c6.4,0,9.2,4.4,9.2,4.4l-1.3,1.2c0,0-2.6-3.8-7.2-3.8c-3.8,0-7.8,2.2-7.8,11
		c0,7.9,4.8,10.6,7.8,10.6c4.9,0,8.2-5.4,8.2-5.4l1.2,1C-21.8,104.7-24.4,110.8-31.6,110.8z"/>
</g>
<rect class="st0" width="80" height="80"/>
</svg>
