<!-- Generator: Adobe Illustrator 23.0.4, SVG Export Plug-In  -->
<svg version="1.1" xmlns="http://www.w3.org/2000/svg" xmlns:xlink="http://www.w3.org/1999/xlink" x="0px" y="0px" width="100.6px"
	 height="80px" viewBox="0 0 100.6 80" style="enable-background:new 0 0 100.6 80;" xml:space="preserve">
<style type="text/css">
	.st0{fill-rule:evenodd;clip-rule:evenodd;}
	.st1{opacity:0;fill-rule:evenodd;clip-rule:evenodd;}
</style>
<defs>
</defs>
<g>
	<path class="st0" d="M9.8,40c0,15.8,12.8,28.5,28.5,28.5c1,0,1.9,0,2.9-0.1v-8.6c-0.9,0.1-1.9,0.2-2.9,0.1c-11,0-20-8.9-20-20
		s8.9-20,20-20c1,0,1.9,0,2.9,0.1v-8.6c-0.9-0.1-1.9-0.1-2.9-0.1C22.5,11.5,9.8,24.2,9.8,40z"/>
	<path class="st0" d="M86.8,20c1,0,1.9,0,2.9,0.1v-8.6c-0.9-0.1-1.9-0.1-2.9-0.1C71,11.5,58.2,24.2,58.2,40S71,68.5,86.8,68.5
		c1,0,1.9,0,2.9-0.1v-8.6c-0.9,0.1-1.9,0.2-2.9,0.1c-9.4,0-17.5-6.5-19.5-15.7h16.7v-8.6H67.3C69.3,26.6,77.4,20,86.8,20z"/>
</g>
<rect class="st1" width="100.6" height="80"/>
</svg>
